<?xml version="1.0" encoding="UTF-8" standalone="no"?><!DOCTYPE svg PUBLIC "-//W3C//DTD SVG 1.1//EN" "http://www.w3.org/Graphics/SVG/1.1/DTD/svg11.dtd"><svg width="100%" height="100%" viewBox="0 0 1000 1000" version="1.1" xmlns="http://www.w3.org/2000/svg" xmlns:xlink="http://www.w3.org/1999/xlink" xml:space="preserve" xmlns:serif="http://www.serif.com/" style="fill-rule:evenodd;clip-rule:evenodd;stroke-linejoin:round;stroke-miterlimit:1.41421;"><g><path d="M913.69,320.729c0,-4.134 -3.351,-7.485 -7.484,-7.485c-77.057,0 -724.863,0 -810.551,0c-2.479,0 -4.856,0.985 -6.608,2.737c-1.753,1.753 -2.737,4.13 -2.737,6.608c0,52.854 0,313.564 0,358.921c0,1.786 0.709,3.499 1.972,4.762c1.263,1.263 2.976,1.972 4.762,1.972c74.184,0 737.753,0 813.595,0c3.895,0 7.051,-3.157 7.051,-7.051c0,-46.812 0,-312.324 0,-360.464Zm-8.184,6.857c0,-3.401 -2.757,-6.157 -6.158,-6.157c-69.589,0 -707.233,0 -794.884,0c-2.644,0 -5.18,1.05 -7.05,2.92c-1.87,1.87 -2.92,4.406 -2.92,7.05c0,52.857 0,299.519 0,342.322c0,1.681 0.668,3.293 1.857,4.482c1.188,1.189 2.801,1.857 4.482,1.857c71.738,0 729.512,0 798.779,0c3.255,0 5.894,-2.639 5.894,-5.894c0,-42.611 0,-303.082 0,-346.58Z" style="fill:#e8eced;"/><path d="M568.452,500l-136.904,69.196l0,-138.392l136.904,69.196Z" style="fill:#e8eced;"/><path d="M959.821,126.488l40.179,0l0,747.024l-40.179,0l0,-5.766c0,-3.594 -2.917,-6.511 -6.51,-6.511l-59.152,0c-3.593,0 -6.51,2.917 -6.51,6.511l0,5.766l-16.303,0l0,-110.863l-741.882,0l0,110.863l-16.369,0l0,-6.511c0,-3.593 -2.917,-6.51 -6.51,-6.51l-59.152,0c-3.593,0 -6.51,2.917 -6.51,6.51l0,6.511l-40.923,0l0,-747.024l40.923,0l0,6.511c0,3.593 2.917,6.51 6.51,6.51l59.152,0c3.593,0 6.51,-2.917 6.51,-6.51l0,-6.511l16.369,0l0,110.863l741.882,0l0,-110.863l16.303,0l0,6.511c0,3.593 2.917,6.51 6.51,6.51l59.152,0c3.593,0 6.51,-2.917 6.51,-6.51l0,-6.511Zm-6.51,686.384l-59.152,0c-3.593,0 -6.51,2.917 -6.51,6.51l0,13.021c0,3.593 2.917,6.511 6.51,6.511l59.152,0c3.593,0 6.51,-2.918 6.51,-6.511l0,-13.021c0,-3.593 -2.917,-6.51 -6.51,-6.51Zm-846.726,-0.744l-59.152,0c-3.593,0 -6.51,2.917 -6.51,6.51l0,13.021c0,3.593 2.917,6.511 6.51,6.511l59.152,0c3.593,0 6.51,-2.918 6.51,-6.511l0,-13.021c0,-3.593 -2.917,-6.51 -6.51,-6.51Zm846.726,-49.479l-59.152,0c-3.593,0 -6.51,2.917 -6.51,6.51l0,13.021c0,3.593 2.917,6.51 6.51,6.51l59.152,0c3.593,0 6.51,-2.917 6.51,-6.51l0,-13.021c0,-3.593 -2.917,-6.51 -6.51,-6.51Zm-846.726,-0.744l-59.152,0c-3.593,0 -6.51,2.917 -6.51,6.51l0,13.021c0,3.593 2.917,6.51 6.51,6.51l59.152,0c3.593,0 6.51,-2.917 6.51,-6.51l0,-13.021c0,-3.593 -2.917,-6.51 -6.51,-6.51Zm852.492,-488.095l-918.154,0l0,452.38l918.154,0l0,-452.38Zm-5.766,-61.756l-59.152,0c-3.593,0 -6.51,2.917 -6.51,6.51l0,13.021c0,3.593 2.917,6.51 6.51,6.51l59.152,0c3.593,0 6.51,-2.917 6.51,-6.51l0,-13.021c0,-3.593 -2.917,-6.51 -6.51,-6.51Zm-846.726,0l-59.152,0c-3.593,0 -6.51,2.917 -6.51,6.51l0,13.021c0,3.593 2.917,6.51 6.51,6.51l59.152,0c3.593,0 6.51,-2.917 6.51,-6.51l0,-13.021c0,-3.593 -2.917,-6.51 -6.51,-6.51Zm846.726,-48.364l-59.152,0c-3.593,0.001 -6.51,2.918 -6.51,6.511l0,13.021c0,3.593 2.917,6.51 6.51,6.51l59.152,0c3.593,0 6.51,-2.917 6.51,-6.51l0,-13.021c0,-3.593 -2.917,-6.51 -6.51,-6.511Zm-846.726,0l-59.152,0c-3.593,0.001 -6.51,2.918 -6.51,6.511l0,13.021c0,3.593 2.917,6.51 6.51,6.51l59.152,0c3.593,0 6.51,-2.917 6.51,-6.51l0,-13.021c0,-3.593 -2.917,-6.51 -6.51,-6.511Z" style="fill:#e9f6fc;"/></g></svg>