<?xml version="1.0" encoding="UTF-8" standalone="no"?><!DOCTYPE svg PUBLIC "-//W3C//DTD SVG 1.1//EN" "http://www.w3.org/Graphics/SVG/1.1/DTD/svg11.dtd"><svg width="100%" height="100%" viewBox="0 0 1000 1000" version="1.1" xmlns="http://www.w3.org/2000/svg" xmlns:xlink="http://www.w3.org/1999/xlink" xml:space="preserve" xmlns:serif="http://www.serif.com/" style="fill-rule:evenodd;clip-rule:evenodd;stroke-linejoin:round;stroke-miterlimit:1.41421;"><path d="M650.711,849.178c-11.815,1.438 -23.728,2.017 -35.653,1.811l-0.613,-0.013l0.243,-11.832c0.713,0.015 1.427,0.027 2.141,0.037c10.726,0.119 21.498,-0.451 32.153,-1.714l0.298,-0.037c0.477,3.916 0.954,7.832 1.431,11.748Zm-92.882,-18.058c11.116,2.939 22.427,5.087 33.801,6.436c0,0 -1.346,11.757 -1.346,11.757c-11.73,-1.354 -23.327,-3.576 -34.746,-6.558l-0.949,-0.251l3.06,-11.432c0.06,0.016 0.12,0.032 0.18,0.048Zm151.586,3.611c-11.299,4.296 -22.949,7.742 -34.817,10.373l-2.561,-11.554c11.254,-2.494 22.324,-5.794 33.118,-9.859l0.056,-0.022c1.401,3.688 2.803,7.375 4.204,11.062Zm-205.102,-25.041c10.008,5.469 20.399,10.236 31.077,14.259l0.26,0.097l-4.136,11.088c-0.573,-0.214 -1.144,-0.431 -1.716,-0.648c-10.695,-4.104 -21.127,-8.929 -31.175,-14.42c0,0 5.567,-10.444 5.567,-10.444c0.041,0.023 0.082,0.045 0.123,0.068Zm258.64,-3.004c-9.944,6.836 -20.375,12.948 -31.166,18.305c0,0 -5.393,-10.536 -5.393,-10.536c10.383,-5.114 20.34,-10.98 29.856,-17.521c2.234,3.251 4.469,6.502 6.703,9.752Zm-305.402,-30.476c8.484,7.738 17.492,14.875 26.957,21.339l-6.675,9.773c-9.938,-6.788 -19.386,-14.278 -28.27,-22.38c0,0 7.807,-8.898 7.807,-8.898c0.06,0.056 0.12,0.111 0.181,0.166Zm301.493,-44.133c-27.278,28.604 -63.266,49.064 -102.274,56.674c-60.206,11.745 -125.498,-7.361 -169.903,-50.207c-2.179,-2.103 -4.308,-4.26 -6.383,-6.467l-416.358,0c-35.392,0 -64.126,-28.734 -64.126,-64.126l0,-454.854c0,-35.392 28.734,-64.126 64.126,-64.126l871.748,0c35.392,0 64.126,28.734 64.126,64.126l0,454.854c0,35.392 -28.734,64.126 -64.126,64.126l-101.652,0c-3.251,5.222 -6.696,10.327 -10.319,15.312l-0.359,0.491l-9.552,-6.986c2.113,-2.89 4.165,-5.83 6.151,-8.817l-61.099,0Zm49.26,34.633c-8.008,9 -16.705,17.4 -25.939,25.19c0,0 -7.74,-8.955 -7.74,-8.955c8.868,-7.433 17.139,-15.501 24.831,-24.094l0.006,-0.008c2.947,2.622 5.894,5.245 8.842,7.867Zm-388.144,-33.954c6.296,9.355 13.211,18.238 20.723,26.63l0.229,0.255l-8.794,7.919c-8.012,-8.898 -15.34,-18.336 -21.986,-28.211l-0.31,-0.463l9.838,-6.577c0.1,0.149 0.2,0.298 0.3,0.447Zm278.693,-0.679l-157.534,0c40.667,23.777 92.522,28.798 137.005,10.449c7.119,-2.937 13.979,-6.44 20.529,-10.449Zm133.667,-20.436l77.469,0l0,-540.872l-813.058,0l0,540.872l297.284,0c-4.273,-8.572 -8.039,-17.396 -11.308,-26.395l-0.123,-0.342l11.136,-4.006c0.039,0.108 0.078,0.217 0.117,0.325c3.795,10.448 8.314,20.63 13.488,30.418l56.252,0c-17.764,-25.059 -29.589,-54.383 -33.761,-84.86c-9.687,-70.775 23.263,-145.682 84.188,-186.061c30.927,-20.497 67.822,-31.626 105.107,-31.804c0.413,-0.001 0.825,-0.001 1.237,0c69.573,0.332 138.028,41.425 170.341,104.952c26.457,52.012 27.489,116.147 2.058,169.306c-4.773,9.976 -10.453,19.5 -16.917,28.467l56.306,0l0.041,-0.076l0.143,0.076Zm-107.279,0c29.508,-28.43 48.126,-68.59 48.126,-111.035c0,-58.115 -35.484,-114.668 -89.485,-139.497c-20.124,-9.253 -42.077,-13.974 -64.45,-13.939c-69.449,0.331 -136.08,52.054 -150.101,123.92c-9.714,49.794 7.032,104.16 44.098,139.925c0.217,0.21 0.435,0.418 0.654,0.626l211.158,0Zm139.189,-51.02c-2.91,11.766 -6.707,23.309 -11.301,34.532l-10.952,-4.483c4.322,-10.559 7.911,-21.497 10.697,-32.617l0.068,-0.274c3.829,0.948 7.659,1.895 11.488,2.842Zm-483.218,-35.632c1.184,11.397 3.165,22.656 5.952,33.78c0,0 -11.457,2.961 -11.457,2.961c-2.952,-11.618 -5.02,-23.531 -6.267,-35.537c0,0 11.748,-1.447 11.748,-1.447c0.008,0.081 0.016,0.162 0.024,0.243Zm603.12,-7.353c0,12.031 -9.767,21.798 -21.798,21.798c-12.031,0 -21.798,-9.767 -21.798,-21.798c0,-12.031 9.767,-21.799 21.798,-21.799c12.031,0 21.798,9.768 21.798,21.799Zm-112.616,-18.648c0.002,0.536 0.004,1.072 0.005,1.608l-5.917,0.01l5.917,0.009c-0.02,11.908 -0.871,23.939 -2.556,35.771l-0.066,0.452l-11.711,-1.707c0.094,-0.639 0.184,-1.279 0.273,-1.918c1.538,-11.312 2.275,-22.768 2.221,-34.15l-0.005,-0.623l11.834,-0.094c0.001,0.214 0.003,0.428 0.005,0.642Zm100.627,18.648c0,5.414 -4.395,9.809 -9.809,9.809c-5.414,0 -9.809,-4.395 -9.809,-9.809c0,-5.414 4.395,-9.81 9.809,-9.81c5.414,0 9.809,4.396 9.809,9.81Zm-338.789,-17.03c0,7.519 -6.105,13.624 -13.624,13.624c-7.52,0 -13.624,-6.105 -13.624,-13.624c0,-7.52 6.104,-13.624 13.624,-13.624c7.519,0 13.624,6.104 13.624,13.624Zm-251.238,-33.449c-0.111,0.776 -0.214,1.553 -0.318,2.331c-1.373,10.596 -2.041,21.26 -2.024,31.889l0.001,0.307l-11.834,0.056c-0.003,-0.648 -0.002,-1.296 -0.001,-1.944c0.055,-11.433 0.866,-22.862 2.444,-34.192l0.016,-0.117c3.906,0.557 7.811,1.113 11.716,1.67Zm481.663,-28.361c2.889,11.377 4.987,22.967 6.275,34.647l0.074,0.7l-11.766,1.259c-1.189,-11.099 -3.143,-22.091 -5.867,-32.96l-0.281,-1.102l11.461,-2.949c0.034,0.135 0.069,0.27 0.104,0.405Zm114.347,10.665c-2.08,6.357 -8.063,10.954 -15.111,10.954c-7.048,0 -13.031,-4.597 -15.11,-10.954l30.221,0Zm-581.054,-37.912c-0.219,0.539 -0.435,1.08 -0.65,1.62c-4.03,10.201 -7.365,20.665 -9.964,31.319l-11.497,-2.805c2.851,-11.687 6.559,-23.182 11.029,-34.298l0.116,-0.285c3.655,1.483 7.31,2.966 10.966,4.449Zm581.838,28.173l0,-12.294l-31.789,0l0,12.294l31.789,0Zm-928.608,-10.642c13.56,0 24.57,-11.009 24.57,-24.57l0,-127.972c0,-13.561 -11.01,-24.57 -24.57,-24.57c-13.561,0 -24.57,11.009 -24.57,24.57l0,127.972c0,13.561 11.009,24.57 24.57,24.57Zm791.523,-46.488c5.66,10.544 10.557,21.45 14.661,32.641l-11.111,4.075c-3.976,-10.843 -8.727,-21.409 -14.218,-31.564l10.411,-5.629c0.085,0.159 0.171,0.318 0.257,0.477Zm137.085,35.097l0,-13.109l-31.789,0l0,13.109l31.789,0Zm-928.608,-5.907c5.705,0 10.336,-4.632 10.336,-10.337l0,-121.842c0,-5.705 -4.631,-10.337 -10.336,-10.337c-5.705,0 -10.337,4.632 -10.337,10.337l0,121.842c0,5.705 4.632,10.337 10.337,10.337Zm928.608,-16.941l0,-11.496l-31.789,0l0,11.496l31.789,0Zm-553.884,-33.644c-0.466,0.641 -0.927,1.286 -1.387,1.931c-6.215,8.772 -11.864,17.959 -16.864,27.481l-10.477,-5.501c5.596,-10.66 11.953,-20.898 19.014,-30.675l0.14,-0.193c3.192,2.319 6.383,4.638 9.574,6.957Zm553.884,12.41l0,-10.662l-31.789,0l0,10.662l31.789,0Zm-171.831,-40.247c7.922,8.8 15.224,18.13 21.827,27.876c0,0 -9.713,6.763 -9.713,6.763c-6.453,-9.589 -13.626,-18.68 -21.376,-27.236l8.771,-7.945c0.164,0.181 0.327,0.362 0.491,0.542Zm171.831,19.846l0,-13.11l-31.789,0l0,13.11l31.789,0Zm-514.694,-34.25c-0.499,0.424 -0.997,0.85 -1.493,1.276c-8.161,7.051 -15.843,14.625 -22.996,22.665l-0.252,0.285l-8.866,-7.839c0.421,-0.476 0.844,-0.95 1.268,-1.423c7.562,-8.4 15.692,-16.313 24.266,-23.634l0.415,-0.352c2.553,3.007 5.105,6.015 7.658,9.022Zm514.694,11.402l0,-11.496l-31.789,0l0,11.496l31.789,0Zm-217.822,-36.969c9.934,6.74 19.435,14.198 28.359,22.289l-7.949,8.767c-8.523,-7.727 -17.559,-14.82 -27.04,-21.254c0,0 6.423,-9.942 6.423,-9.942c0.069,0.047 0.138,0.093 0.207,0.14Zm217.822,15.734l0,-12.293l-31.789,0l0,12.293l31.789,0Zm-466.603,-21.891c-10.248,5.126 -20.199,11.026 -29.683,17.588c0,0 -6.857,-9.646 -6.857,-9.646c9.931,-6.915 20.406,-13.104 31.246,-18.526c1.765,3.528 3.529,7.056 5.294,10.584Zm195.396,-21.319c10.758,4.014 21.224,8.743 31.329,14.145l1.14,0.615l-5.643,10.403c-0.576,-0.313 -1.154,-0.623 -1.732,-0.932c-9.632,-5.113 -19.587,-9.579 -29.808,-13.357l4.103,-11.1c0.203,0.075 0.407,0.151 0.611,0.226Zm271.207,21.178l0,-13.11l-31.789,0l0,13.11l31.789,0Zm-412.35,-19.193c-0.577,0.13 -1.153,0.263 -1.729,0.396c-10.532,2.472 -20.894,5.641 -31.011,9.487l-0.388,0.149l-4.239,-11.049c0.614,-0.235 1.228,-0.468 1.843,-0.699c10.656,-3.977 21.538,-7.232 32.631,-9.763l0.297,-0.066c0.865,3.848 1.731,7.697 2.596,11.545Zm82.055,-16.087c11.743,1.354 23.319,3.501 34.754,6.449l0.596,0.155l-2.989,11.451c-11.107,-2.9 -22.537,-5.044 -34.039,-6.335l1.321,-11.761c0.119,0.014 0.238,0.027 0.357,0.041Zm330.295,12.431l0,-14.741l-31.789,0l0,14.741l31.789,0Zm-358.367,-14.064c1.485,0.007 3.547,0.036 3.547,0.036l-0.205,11.833c-0.61,-0.011 -1.219,-0.018 -1.829,-0.025c-10.726,-0.085 -21.485,0.518 -32.13,1.814l-0.626,0.079l-1.467,-11.743c10.878,-1.359 21.865,-2.011 32.71,-1.994Zm357.583,-10.416c-2.08,-6.357 -8.063,-10.955 -15.111,-10.955c-7.048,0 -13.031,4.598 -15.11,10.955l30.221,0Z" style="fill:#e8eced;"/></svg>