<?xml version="1.0" encoding="UTF-8" standalone="no"?><!DOCTYPE svg PUBLIC "-//W3C//DTD SVG 1.1//EN" "http://www.w3.org/Graphics/SVG/1.1/DTD/svg11.dtd"><svg width="100%" height="100%" viewBox="0 0 1000 1000" version="1.1" xmlns="http://www.w3.org/2000/svg" xmlns:xlink="http://www.w3.org/1999/xlink" xml:space="preserve" xmlns:serif="http://www.serif.com/" style="fill-rule:evenodd;clip-rule:evenodd;stroke-linejoin:round;stroke-miterlimit:1.41421;"><path d="M451.549,556.316c-4.526,46.127 -43.47,82.218 -90.777,82.218c-29.425,0 -55.615,-13.963 -72.298,-35.619c-42.007,68.373 -100.489,163.365 -105.266,170.069l-0.001,0.001l0,0c-18.306,25.693 -48.342,42.462 -82.264,42.462c-55.712,0 -100.943,-45.231 -100.943,-100.943c0,-6.099 0.542,-12.072 1.581,-17.874l34.17,-298.099l0.001,-0.6c0.24,-75.935 46.184,-141.195 111.741,-169.692l0,-21.079c0,-12.477 10.13,-22.607 22.607,-22.607l102.477,0c12.477,0 22.607,10.13 22.607,22.607l0,21.079c18.847,8.192 36.073,19.423 51.057,33.073l308.536,0c14.985,-13.65 32.21,-24.881 51.057,-33.073l0,-21.079c0,-12.477 10.13,-22.607 22.607,-22.607l102.477,0c12.477,0 22.607,10.13 22.607,22.607l0,21.079c65.73,28.571 111.743,94.101 111.743,170.292c0,2.532 -0.051,5.052 -0.152,7.56l33.303,290.539c1.039,5.802 1.581,11.775 1.581,17.874c0,55.712 -45.231,100.943 -100.943,100.943c-33.922,0 -63.958,-16.769 -82.264,-42.462l0,0l-0.001,-0.001c-4.676,-6.562 -60.809,-97.718 -102.579,-165.696c-16.726,19.144 -41.315,31.246 -68.709,31.246c-47.307,0 -86.251,-36.091 -90.777,-82.218l-103.178,0Zm-89.837,-50.007c26.696,0 48.369,21.673 48.369,48.368c0,26.696 -21.673,48.369 -48.369,48.369c-26.695,0 -48.368,-21.673 -48.368,-48.369c0,-26.695 21.673,-48.368 48.368,-48.368Zm283.903,0c26.695,0 48.368,21.673 48.368,48.368c0,26.696 -21.673,48.369 -48.368,48.369c-26.696,0 -48.369,-21.673 -48.369,-48.369c0,-26.695 21.673,-48.368 48.369,-48.368Zm136.693,-262.873c78.926,0 143.003,64.078 143.003,143.003c0,78.925 -64.077,143.003 -143.003,143.003c-78.925,0 -143.002,-64.078 -143.002,-143.003c0,-78.925 64.077,-143.003 143.002,-143.003Zm-563.598,0c78.925,0 143.002,64.078 143.002,143.003c0,78.925 -64.077,143.003 -143.002,143.003c-78.925,0 -143.003,-64.078 -143.003,-143.003c0,-78.925 64.078,-143.003 143.003,-143.003Zm563.598,23.133c66.158,0 119.87,53.712 119.87,119.87c0,66.158 -53.712,119.87 -119.87,119.87c-66.158,0 -119.869,-53.712 -119.869,-119.87c0,-66.158 53.711,-119.87 119.869,-119.87Zm-563.598,0c66.158,0 119.87,53.712 119.87,119.87c0,66.158 -53.712,119.87 -119.87,119.87c-66.158,0 -119.87,-53.712 -119.87,-119.87c0,-66.158 53.712,-119.87 119.87,-119.87Zm281.29,174.548c13.742,0 24.899,11.157 24.899,24.899c0,13.742 -11.157,24.899 -24.899,24.899c-13.742,0 -24.899,-11.157 -24.899,-24.899c0,-13.742 11.157,-24.899 24.899,-24.899Zm308.319,-14.956l7.872,7.872l-21.468,21.468l21.468,21.468l-7.872,7.872l-21.468,-21.468l-21.468,21.468l-7.872,-7.872l21.467,-21.468l-21.467,-21.468l7.872,-7.872l21.468,21.468l21.468,-21.468Zm-594.249,-23.296c1.19,-1.305 2.874,-2.048 4.64,-2.048c1.766,0 3.45,0.743 4.64,2.048c7.426,8.14 21.505,23.573 25.041,27.449c0.528,0.58 0.821,1.336 0.821,2.12c0,5.392 0,27.201 0,35.511c0,0.859 -0.341,1.683 -0.948,2.29c-0.608,0.607 -1.431,0.948 -2.29,0.948c-10.565,0 -43.96,0 -54.527,0c-0.859,0 -1.683,-0.341 -2.291,-0.948c-0.607,-0.608 -0.948,-1.432 -0.948,-2.291c0,-8.246 0,-29.778 0,-35.381c0,-0.867 0.324,-1.703 0.909,-2.344c3.674,-4.028 17.587,-19.28 24.953,-27.354Zm21.065,-11.786c-1.304,-1.19 -2.047,-2.874 -2.047,-4.64c0,-1.766 0.743,-3.45 2.047,-4.64c8.141,-7.426 23.574,-21.505 27.45,-25.041c0.58,-0.528 1.335,-0.821 2.12,-0.821c5.392,0 27.2,0 35.511,0c0.859,0 1.682,0.341 2.29,0.948c0.607,0.608 0.948,1.431 0.948,2.29c0,10.565 0,43.96 0,54.527c0,0.859 -0.341,1.683 -0.949,2.291c-0.607,0.607 -1.431,0.948 -2.29,0.948c-8.246,0 -29.778,0 -35.381,0c-0.867,0 -1.704,-0.324 -2.345,-0.909c-4.028,-3.674 -19.279,-17.587 -27.354,-24.953Zm-32.851,-9.28c1.305,1.19 2.048,2.874 2.048,4.64c0,1.766 -0.743,3.45 -2.048,4.64c-8.14,7.426 -23.573,21.505 -27.449,25.041c-0.58,0.528 -1.336,0.821 -2.12,0.821c-5.392,0 -27.201,0 -35.511,0c-0.859,0 -1.683,-0.341 -2.29,-0.948c-0.607,-0.607 -0.948,-1.431 -0.948,-2.29c0,-10.565 0,-43.96 0,-54.527c0,-0.859 0.341,-1.683 0.948,-2.29c0.608,-0.608 1.432,-0.949 2.291,-0.949c8.246,0 29.778,0 35.381,0c0.867,0 1.703,0.324 2.344,0.909c4.028,3.674 19.28,17.587 27.354,24.953Zm643.114,-24.802c16.249,0 29.441,13.193 29.441,29.442c0,16.249 -13.192,29.442 -29.441,29.442c-16.25,0 -29.442,-13.193 -29.442,-29.442c0,-16.249 13.192,-29.442 29.442,-29.442Zm-100.943,55.729l0,-52.574l-52.575,0l0,52.574l52.575,0Zm100.943,-42.895c9.166,0 16.608,7.442 16.608,16.608c0,9.167 -7.442,16.608 -16.608,16.608c-9.167,0 -16.609,-7.441 -16.609,-16.608c0,-9.166 7.442,-16.608 16.609,-16.608Zm-240.879,16.608l-54.502,15.772l0,-31.544l54.502,15.772Zm98.928,-14.721l29.441,0l0,29.442l-29.441,0l0,-29.442Zm-244.997,1.577l-48.369,0l0,26.288l48.369,0l0,-26.288Zm-235.1,-3.281c-1.19,1.304 -2.874,2.047 -4.64,2.047c-1.766,0 -3.45,-0.743 -4.64,-2.047c-7.426,-8.141 -21.505,-23.574 -25.041,-27.45c-0.528,-0.58 -0.821,-1.335 -0.821,-2.12c0,-5.392 0,-27.2 0,-35.511c0,-0.859 0.341,-1.682 0.948,-2.29c0.607,-0.607 1.431,-0.948 2.29,-0.948c10.565,0 43.96,0 54.527,0c0.859,0 1.683,0.341 2.29,0.949c0.608,0.607 0.949,1.431 0.949,2.29c0,8.246 0,29.778 0,35.381c0,0.867 -0.324,1.704 -0.909,2.345c-3.674,4.028 -17.587,19.279 -24.953,27.354Zm591.555,-31.681l-32.597,-57.043l-32.596,57.043l65.193,0Zm-17.175,-10.194l-30.843,0l15.421,-28.938l15.422,28.938Z" style="fill:#e8eced;"/></svg>