<?xml version="1.0" encoding="UTF-8" standalone="no"?><!DOCTYPE svg PUBLIC "-//W3C//DTD SVG 1.1//EN" "http://www.w3.org/Graphics/SVG/1.1/DTD/svg11.dtd"><svg width="100%" height="100%" viewBox="0 0 200 78" version="1.1" xmlns="http://www.w3.org/2000/svg" xmlns:xlink="http://www.w3.org/1999/xlink" xml:space="preserve" xmlns:serif="http://www.serif.com/" style="fill-rule:evenodd;clip-rule:evenodd;stroke-linejoin:round;stroke-miterlimit:1.41421;"><rect id="Plan-de-travail1" serif:id="Plan de travail1" x="0" y="0" width="199.812" height="78" style="fill:none;"/><clipPath id="_clip1"><rect x="0" y="0" width="199.812" height="78"/></clipPath><g clip-path="url(#_clip1)"><rect id="Final" x="0" y="-24.185" width="199.772" height="126.623" style="fill:none;"/><path d="M101.077,11.975c1.511,0.392 3.049,0.875 4.612,1.466c22.166,8.387 26.448,30.622 27.618,44.981c16.39,-6.364 35.669,-13.08 41.918,-17.501c-6.2,7.03 -22.351,14.786 -36.66,18.272c23.362,-4.021 40.361,-1.543 61.247,-12.188c-18.817,13.464 -50.754,14.352 -66.296,14.377l0.001,0.009l-18.492,-0.002l-12.271,-26.848c-0.012,-0.026 -0.04,-0.04 -0.068,-0.033c-0.027,0.006 -0.047,0.031 -0.046,0.059l0.605,26.82l-1.302,0l-0.866,-49.412Zm-24.291,49.409l-13.387,-0.002c0.783,-5.303 4.728,-43.493 -63.061,-44.499c-0.139,-0.002 -0.262,-0.087 -0.313,-0.215c-0.052,-0.128 -0.021,-0.275 0.077,-0.372c9.74,-9.064 36.226,-13.176 46.324,-14.315c22.977,-2.59 11.079,8.79 27.581,8.891c6.741,0.042 15.447,-1.482 25.373,0.696l-0.038,27.983l-0.029,21.836l-1.324,0l0,-47.72c0,-0.037 -0.026,-0.068 -0.061,-0.075c-0.036,-0.008 -0.072,0.01 -0.086,0.044l-21.056,47.748Zm-34.245,-53.976c2.248,0.024 4.58,0.769 6.146,2.29c0.561,0.544 1.082,1.415 0.356,2.005c-1.064,0.865 -2.433,1.373 -3.727,1.955c-3.048,1.372 -6.16,2.631 -9.484,3.305c-1.26,0.256 -2.685,0.519 -3.667,-0.203c-0.887,-0.651 -0.534,-2.185 0.093,-3.199c2.247,-3.635 6.51,-6.134 10.2,-6.154c0.028,0 0.055,0 0.083,0.001Zm-8.662,6.617l-0.008,0.012c-0.288,0.444 -0.593,0.926 -0.644,1.417c0,0 0.687,0.138 1.381,0.087c2.368,-0.172 4.691,-0.898 6.995,-1.643c2.224,-0.718 4.455,-1.45 6.502,-2.571c0.171,-0.094 0.332,-0.177 0.488,-0.308c0,0 0.003,-0.072 -0.012,-0.133c-0.154,-0.624 -0.801,-1.008 -1.419,-1.36c-1.542,-0.877 -3.361,-1.327 -5.112,-1.151c0,0 -0.405,0.057 -0.732,0.133c-1.49,0.348 -2.891,1.054 -4.129,1.98c0.592,0.095 1.076,0.392 1.309,0.868c0.465,0.947 -0.238,2.246 -1.569,2.899c-1.174,0.577 -2.448,0.458 -3.05,-0.23Zm14.705,-2.952c-0.005,0.016 0.003,-0.012 0,0Z" style="fill:#f1f7fb;"/><g><path d="M69.629,73.1c0,-1.208 -0.598,-2.535 -1.771,-2.535c-0.048,0 -0.072,-0.048 -0.072,-0.096c0,-0.024 0.012,-0.048 0.036,-0.072c0.361,-0.347 1.185,-1.089 1.185,-2.788l0,-0.072c0,-1.867 -1.47,-3.026 -3.338,-3.026c-0.586,0 -1.566,0.108 -1.889,0.179c-0.323,0.072 -0.586,0.084 -0.586,0.43c0,0.251 0.156,0.562 0.156,0.742l0,0.395c0,1.16 -0.06,3.614 -0.06,5.79c0,3.04 0.036,3.877 0.311,4.128c0.262,0.239 1.446,0.239 2.834,0.239c2.165,0 3.194,-1.722 3.194,-3.314Zm-3.852,-7.873c1.221,0 2.633,0.766 2.633,2.178c0,2.992 -2.046,2.801 -3.471,2.801c-0.059,0 -0.155,-0.108 -0.155,-0.299c0,-1.999 0.024,-3.854 0.251,-4.536c0.168,-0.096 0.395,-0.144 0.742,-0.144Zm0.694,10.554c-0.981,0 -1.52,-0.239 -1.603,-0.874c-0.12,-0.933 -0.024,-2.309 -0.06,-3.769c0.383,0 0.897,-0.156 1.722,-0.156c3.817,0 2.524,4.799 -0.059,4.799Z" style="fill:#f1f7fb;fill-rule:nonzero;"/><path d="M73.193,76.092c-0.131,-0.215 -0.706,0 -0.718,-1.89c-0.024,-7.262 0.012,-7.789 0.048,-8.841c0.012,-0.455 -0.096,-0.682 -0.443,-0.778c-0.215,-0.06 -0.922,0.036 -0.91,0.335c0.204,5.324 -0.287,7.669 -0.024,9.475c0.371,2.56 2.454,2.381 2.047,1.699Z" style="fill:#f1f7fb;fill-rule:nonzero;"/><path d="M76.713,76.509c0.897,0 1.412,-1.314 1.412,-1.697l0,-0.036c0,1.077 0.812,2.308 1.59,1.733c0.275,-0.203 -0.168,-0.346 -0.288,-0.884c-0.131,-0.61 -0.119,-1.448 -0.119,-2.764c0,-3.609 0.347,-3.693 -0.06,-3.883c-0.703,-0.334 -1.038,-0.238 -0.943,0.701c0.012,0.119 0,0.214 0,0.214c-0.095,0 -0.478,-0.716 -1.041,-0.716c-3.159,0 -3.757,7.332 -0.551,7.332Zm0.036,-0.561c-1.388,0 -0.778,-6.354 0.455,-6.354c0.741,0 0.658,1.317 0.813,1.317c0.156,0 0.18,0.383 0.18,0.753c0,1.424 0,4.284 -1.448,4.284Z" style="fill:#f1f7fb;fill-rule:nonzero;"/><path d="M85.076,68.914c-1.326,0 -2.27,3.827 -2.342,4.126c-0.131,-0.61 0.012,-2.931 0.012,-3.505c0,-0.562 -0.096,-0.681 -0.491,-0.681c-1.843,0 -0.527,1.147 -0.982,6.854c-0.036,0.454 0.228,0.801 0.563,0.801l0.719,0c0.167,0 0.311,-0.131 0.311,-0.395c0,-3.912 1.314,-6.436 2.103,-6.436c0.311,0 0.526,0.658 0.526,2.082c0,2.5 -0.419,4.522 -0.419,4.522c0,0.227 0.872,0.598 0.956,-0.383c0.131,-1.495 0.251,-3.876 0.251,-5.372c0,-1.482 -0.693,-1.613 -1.207,-1.613Z" style="fill:#f1f7fb;fill-rule:nonzero;"/><path d="M91.794,70.719c0.072,-0.347 0.131,-0.79 -0.547,-1.399c-0.25,-0.227 -0.561,-0.358 -0.861,-0.358c-1.973,0 -2.726,2.284 -2.726,4.091c0,2.106 0.849,3.528 2.702,3.528c0.539,0 0.956,-0.358 0.956,-0.681c0,-0.155 -0.059,-0.275 -0.202,-0.275c-0.119,0 -0.227,0.108 -0.478,0.108c-2.094,0 -1.771,-5.899 -0.371,-5.899c0.263,0 0.49,0.155 0.646,0.43c0.286,0.515 0.12,0.802 0.358,0.91c0.095,0.048 0.226,0.048 0.321,-0.036c0.083,-0.072 0.178,-0.299 0.202,-0.419Z" style="fill:#f1f7fb;fill-rule:nonzero;"/><path d="M104.503,73.1c0,-1.208 -0.598,-2.535 -1.77,-2.535c-0.048,0 -0.072,-0.048 -0.072,-0.096c0,-0.024 0.012,-0.048 0.036,-0.072c0.36,-0.347 1.184,-1.089 1.184,-2.788l0,-0.072c0,-1.867 -1.47,-3.026 -3.337,-3.026c-0.587,0 -1.567,0.108 -1.89,0.179c-0.322,0.072 -0.585,0.084 -0.585,0.43c0,0.251 0.155,0.562 0.155,0.742l0,0.395c0,1.16 -0.06,3.614 -0.06,5.79c0,3.04 0.036,3.877 0.311,4.128c0.263,0.239 1.447,0.239 2.835,0.239c2.164,0 3.193,-1.722 3.193,-3.314Zm-3.851,-7.873c1.22,0 2.633,0.766 2.633,2.178c0,2.992 -2.047,2.801 -3.471,2.801c-0.06,0 -0.156,-0.108 -0.156,-0.299c0,-1.999 0.024,-3.854 0.252,-4.536c0.167,-0.096 0.395,-0.144 0.742,-0.144Zm0.693,10.554c-0.981,0 -1.519,-0.239 -1.603,-0.874c-0.12,-0.933 -0.024,-2.309 -0.06,-3.769c0.383,0 0.897,-0.156 1.723,-0.156c3.816,0 2.524,4.799 -0.06,4.799Z" style="fill:#f1f7fb;fill-rule:nonzero;"/><path d="M107.974,76.509c0.898,0 1.412,-1.314 1.412,-1.697l0,-0.036c0,1.077 0.813,2.308 1.59,1.733c0.275,-0.203 -0.168,-0.346 -0.287,-0.884c-0.132,-0.61 -0.12,-1.448 -0.12,-2.764c0,-3.609 0.347,-3.693 -0.06,-3.883c-0.702,-0.334 -1.038,-0.238 -0.942,0.701c0.012,0.119 0,0.214 0,0.214c-0.096,0 -0.479,-0.716 -1.042,-0.716c-3.159,0 -3.757,7.332 -0.551,7.332Zm0.036,-0.561c-1.388,0 -0.777,-6.354 0.455,-6.354c0.742,0 0.658,1.317 0.814,1.317c0.155,0 0.179,0.383 0.179,0.753c0,1.424 0,4.284 -1.448,4.284Z" style="fill:#f1f7fb;fill-rule:nonzero;"/><path d="M115.151,68.889c0,-0.298 -0.562,-0.262 -0.753,-0.262l-0.479,0c0,-1.161 0,-1.077 0.024,-1.687c0.012,-0.455 -0.096,-0.682 -0.442,-0.778c-0.215,-0.06 -0.919,0.048 -0.907,0.347c0.036,0.838 0.048,1.555 0.048,2.189c-0.395,0.048 -0.706,0.12 -0.706,0.263c0,0.167 0.335,0.25 0.718,0.262c-0.012,2.955 -0.263,3.721 -0.048,5.169c0.37,2.56 2.45,2.381 2.043,1.699c-0.132,-0.216 -0.706,0 -0.718,-1.891c-0.012,-2.524 -0.012,-4.043 -0.012,-5.001c0.622,-0.035 1.232,-0.107 1.232,-0.31Z" style="fill:#f1f7fb;fill-rule:nonzero;"/><path d="M116.134,73.113c0,-1.759 0.742,-3.996 2.667,-3.996c1.04,0 1.614,1.244 1.614,2.501c0,1.244 -0.574,2.488 -1.865,2.488c-0.514,0 -0.717,-0.443 -0.849,-0.443c-0.048,0 -0.072,0.024 -0.072,0.096c0,0.933 0.598,1.985 1.423,1.985c0.251,0 0.347,-0.108 0.478,-0.108c0.132,0 0.192,0.12 0.192,0.275c0,0.311 -0.419,0.67 -0.945,0.67c-1.818,0 -2.643,-1.399 -2.643,-3.468Zm2.237,0.263c0.8,0 1.195,-0.981 1.195,-1.89c0,-0.778 -0.299,-1.531 -0.873,-1.531c-0.908,0 -1.088,1.818 -1.088,2.727c0,0.252 0.024,0.443 0.036,0.479c0.036,0.096 0.359,0.215 0.73,0.215Z" style="fill:#f1f7fb;fill-rule:nonzero;"/><path d="M123.886,76.509c0.898,0 1.412,-1.314 1.412,-1.697l0,-0.036c0,1.077 0.813,2.308 1.59,1.733c0.275,-0.203 -0.168,-0.346 -0.287,-0.884c-0.132,-0.61 -0.12,-1.448 -0.12,-2.764c0,-3.609 0.347,-3.693 -0.06,-3.883c-0.703,-0.334 -1.038,-0.238 -0.942,0.701c0.012,0.119 0,0.214 0,0.214c-0.096,0 -0.479,-0.716 -1.042,-0.716c-3.159,0 -3.757,7.332 -0.551,7.332Zm0.036,-0.561c-1.388,0 -0.778,-6.354 0.455,-6.354c0.742,0 0.658,1.317 0.813,1.317c0.156,0 0.18,0.383 0.18,0.753c0,1.424 0,4.284 -1.448,4.284Z" style="fill:#f1f7fb;fill-rule:nonzero;"/><path d="M133.109,69.309c0,-0.24 -0.048,-0.288 -0.203,-0.359c-0.191,-0.096 -0.383,-0.156 -0.526,-0.156c-0.287,0 -0.442,0.275 -0.442,0.646c-0.024,0.395 -0.036,0.802 -0.036,1.22c-0.251,3.111 -1.353,5.049 -2.047,5.049c-0.311,0 -0.407,-0.287 -0.407,-0.957c0,-0.981 0.216,-2.787 0.299,-5.647c0,-0.107 -0.299,-0.251 -0.586,-0.251c-0.31,0 -0.609,0.144 -0.609,0.634c0,1.244 -0.119,2.692 -0.119,3.924c0,1.711 0.227,3.061 1.314,3.061c1.078,0 1.916,-2.403 2.095,-3.42c-0.012,0.168 -0.012,0.144 -0.024,0.563c-0.095,3.109 1.411,3.527 1.411,2.595c0,-0.108 -0.06,-0.191 -0.096,-0.299c-0.18,-0.466 -0.203,-1.136 -0.168,-3.074c0.048,-2.285 0.144,-3.159 0.144,-3.529Z" style="fill:#f1f7fb;fill-rule:nonzero;"/></g></g></svg>