<?xml version="1.0" encoding="UTF-8" standalone="no"?><!DOCTYPE svg PUBLIC "-//W3C//DTD SVG 1.1//EN" "http://www.w3.org/Graphics/SVG/1.1/DTD/svg11.dtd"><svg width="100%" height="100%" viewBox="0 0 1000 1000" version="1.1" xmlns="http://www.w3.org/2000/svg" xmlns:xlink="http://www.w3.org/1999/xlink" xml:space="preserve" xmlns:serif="http://www.serif.com/" style="fill-rule:evenodd;clip-rule:evenodd;stroke-linejoin:round;stroke-miterlimit:1.41421;"><g><path d="M664.057,108.3l7.572,160.514l-19.181,0c-3.702,-28.267 -8.75,-48.457 -15.143,-60.571c-10.432,-19.518 -24.313,-33.903 -41.643,-43.157c-17.33,-9.254 -40.129,-13.881 -68.395,-13.881l-96.41,0l0,522.932c0,42.064 4.543,68.312 13.629,78.743c12.787,14.134 32.473,21.2 59.057,21.2l23.724,0l0,18.676l-290.238,0l0,-18.676l24.229,0c28.939,0 49.466,-8.749 61.58,-26.247c7.404,-10.769 11.105,-35.334 11.105,-73.696l0,-522.932l-82.276,0c-31.968,0 -54.682,2.355 -68.143,7.066c-17.498,6.394 -32.473,18.676 -44.923,36.848c-12.451,18.171 -19.854,42.736 -22.21,73.695l-19.181,0l8.076,-160.514l558.771,0Z" style="fill:#e9f6fc;fill-rule:nonzero;"/><path d="M800.825,833.902c-5.99,16.513 -18.578,30.275 -37.763,41.284c-19.185,11.009 -40.597,16.514 -64.234,16.514l0,-41.285c19.266,0 35.78,-4.492 49.542,-13.478c13.761,-8.985 20.642,-19.954 20.642,-32.906c0,-14.247 -2.51,-28.292 -7.529,-42.135c-5.018,-13.842 -11.494,-30.963 -19.428,-51.363l-70.426,-180.924l47.113,0l76.498,201.081l68.727,-201.081l47.113,0l-110.255,304.293Z" style="fill:#e9f6fc;fill-rule:nonzero;"/><path d="M143.51,777.03l-0.076,16.803l-50.408,-0.227l0.075,-16.802c16.803,0.075 33.606,0.15 50.409,0.226Zm-84.014,-0.377l-0.076,16.802l-50.408,-0.226l0.076,-16.803c16.802,0.076 33.605,0.151 50.408,0.227Zm-42.693,-24.786l-16.803,0l0,-50.408l16.803,0c0,16.802 0,33.605 0,50.408Zm0,-84.014l-16.803,0l0,-50.409l16.803,0c0,16.803 0,33.606 0,50.409Zm0,-84.015l-16.803,0l0,-50.409l16.803,0c0,16.803 0,33.606 0,50.409Zm0,-84.015l-16.803,0l0,-50.408l16.803,0c0,16.802 0,33.605 0,50.408Zm0,-84.014l-16.803,0l0,-50.409l16.803,0c0,16.803 0,33.606 0,50.409Zm0,-84.015l-16.803,0l0,-50.409l16.803,0c0,16.803 0,33.606 0,50.409Zm0,-84.015l-16.803,0l0,-50.408l16.803,0c0,16.802 0,33.605 0,50.408Zm0,-84.014l-16.803,0l0,-50.409l16.803,0c0,16.803 0,33.606 0,50.409Z" style="fill:#e8eced;fill-rule:nonzero;"/><path d="M1000,891.7l-16.803,0l0,-26.032l16.803,0c0,8.677 0,17.355 0,26.032Zm0,-59.638l-16.803,0l0,-50.409l16.803,0c0,16.803 0,33.606 0,50.409Zm0,-84.015l-16.803,0l0,-50.409l16.803,0c0,16.803 0,33.606 0,50.409Zm0,-84.014l-16.803,0l0,-50.409l16.803,0c0,16.803 0,33.606 0,50.409Zm0,-84.015l-16.803,0l0,-50.409l16.803,0c0,16.803 0,33.606 0,50.409Z" style="fill:#e8eced;fill-rule:nonzero;"/></g></svg>